<?xml version="1.0" standalone="no"?>
<!DOCTYPE svg PUBLIC "-//W3C//DTD SVG 20010904//EN"
 "http://www.w3.org/TR/2001/REC-SVG-20010904/DTD/svg10.dtd">
<svg version="1.0" xmlns="http://www.w3.org/2000/svg"
 width="384.000000pt" height="122.000000pt" viewBox="0 0 384.000000 122.000000"
 preserveAspectRatio="xMidYMid meet">

<g transform="translate(0.000000,122.000000) scale(0.100000,-0.100000)"
fill="#000000" stroke="none">
<path d="M723 1069 c13 -66 0 -94 -56 -118 -40 -17 -58 -34 -95 -87 -11 -16
-12 -11 -9 34 2 28 2 52 -1 52 -2 0 -21 -9 -41 -21 -27 -15 -42 -34 -59 -75
-12 -30 -22 -65 -22 -79 0 -21 -8 -27 -56 -41 -30 -9 -58 -13 -61 -10 -3 3
-18 -1 -34 -9 -34 -18 -90 -19 -111 -2 -9 6 -18 23 -20 37 -3 27 -32 37 -57
21 -12 -8 -12 -14 -1 -41 7 -17 18 -37 24 -44 49 -53 49 -53 31 -80 -16 -24
-16 -28 1 -66 24 -55 51 -69 147 -80 215 -25 338 -68 396 -140 38 -48 129 -85
232 -94 60 -6 85 -14 120 -36 24 -16 47 -26 52 -21 4 4 0 27 -9 51 -16 40 -24
46 -111 86 -51 24 -93 46 -93 49 0 3 28 19 63 34 52 23 69 38 95 78 49 75 45
125 -14 210 -53 76 -84 129 -84 144 0 6 14 28 30 49 17 21 30 41 30 44 0 13
-60 5 -103 -13 -58 -25 -71 -45 -16 -26 23 9 44 13 46 11 2 -2 -6 -24 -18 -49
l-22 -46 41 -63 c41 -63 92 -167 92 -187 0 -6 -12 -33 -26 -59 -23 -43 -32
-50 -87 -69 -34 -12 -65 -18 -70 -14 -4 4 -2 22 4 39 20 57 4 97 -56 144 -71
57 -115 143 -108 211 8 68 -10 58 -35 -20 -17 -52 -21 -80 -16 -118 l7 -50
-50 48 c-27 26 -52 47 -57 47 -4 0 -4 -14 -1 -31 l7 -32 -41 34 c-31 24 -41
39 -37 54 3 11 8 48 12 82 5 44 13 68 28 82 l22 20 2 -50 c2 -46 24 -99 42
-99 4 0 10 26 14 58 6 50 11 60 44 85 20 16 50 31 66 34 35 7 61 61 53 110 -5
30 -4 32 13 23 26 -14 66 -69 74 -102 5 -23 2 -30 -22 -42 -45 -23 -78 -75
-84 -131 -6 -49 -5 -52 42 -104 45 -51 76 -62 64 -23 -17 51 -28 72 -38 72 -6
0 -19 12 -28 27 -15 24 -15 30 1 71 10 29 29 53 53 71 74 52 55 133 -41 178
-31 14 -59 27 -62 29 -3 2 -2 -19 4 -47z m-298 -435 c9 -14 14 -32 11 -40 -4
-11 -11 -8 -30 11 -14 14 -34 25 -46 25 -11 0 -20 7 -20 15 0 10 10 15 34 15
25 0 38 -6 51 -26z m397 -301 c19 -17 24 -43 9 -43 -6 0 -17 10 -25 22 -27 38
-17 51 16 21z"/>
<path d="M1210 921 c0 -5 4 -11 10 -13 5 -1 11 -41 13 -88 3 -66 0 -89 -12
-103 -14 -17 -11 -18 65 -15 l79 3 0 65 c0 57 -3 66 -22 75 -16 7 -23 20 -25
45 -3 35 -3 35 -55 38 -30 2 -53 -1 -53 -7z m88 -53 c-2 -31 -8 -44 -20 -46
-15 -3 -18 4 -18 42 0 40 3 46 21 46 18 0 20 -5 17 -42z m40 -100 l-3 -53 -35
0 c-33 0 -35 2 -38 37 -3 32 1 39 25 52 48 26 54 21 51 -36z"/>
<path d="M1950 920 c0 -5 5 -10 10 -10 15 0 13 -183 -2 -198 -9 -9 -3 -12 27
-12 30 0 36 3 27 12 -14 14 -17 148 -4 148 5 0 21 -22 36 -50 15 -27 33 -50
40 -50 7 0 25 23 40 50 15 28 31 50 37 50 5 0 9 -31 9 -70 0 -55 -3 -71 -17
-79 -14 -8 -8 -10 27 -10 35 0 41 2 28 10 -15 8 -18 25 -18 104 0 57 4 95 10
95 6 0 10 5 10 10 0 6 -11 10 -24 10 -19 0 -31 -13 -58 -62 -37 -67 -53 -80
-62 -50 -4 10 -20 39 -36 65 -22 36 -36 47 -55 47 -14 0 -25 -4 -25 -10z"/>
<path d="M1435 901 c-7 -12 12 -24 25 -16 11 7 4 25 -10 25 -5 0 -11 -4 -15
-9z"/>
<path d="M1550 885 c0 -14 -7 -28 -15 -31 -19 -8 -20 -24 0 -24 10 0 15 -16
17 -62 3 -62 3 -63 33 -65 27 -2 28 -2 8 7 -20 8 -23 17 -23 65 0 42 3 55 15
55 8 0 15 4 15 9 0 5 -7 11 -15 15 -8 3 -15 17 -15 31 0 14 -4 25 -10 25 -5 0
-10 -11 -10 -25z"/>
<path d="M2470 887 c0 -13 -6 -29 -12 -35 -10 -10 -10 -15 -1 -20 7 -4 13 -34
15 -67 3 -59 4 -60 33 -62 17 -1 23 0 15 4 -24 10 -30 25 -30 76 0 35 4 47 15
47 8 0 15 4 15 9 0 5 -7 11 -15 15 -8 3 -15 17 -15 31 0 14 -4 25 -10 25 -5 0
-10 -10 -10 -23z"/>
<path d="M1423 836 c12 -9 17 -27 17 -61 0 -34 -5 -52 -17 -61 -16 -12 -13
-13 27 -13 40 0 43 1 28 13 -14 10 -18 28 -18 75 0 60 0 61 -27 61 -25 -1 -26
-2 -10 -14z"/>
<path d="M1645 827 c-4 -13 -5 -46 -3 -73 l3 -49 63 -3 c51 -2 62 0 62 13 0
18 -11 20 -27 4 -14 -14 -65 -8 -70 8 -3 7 18 25 46 40 43 23 51 32 49 53 -3
23 -8 25 -60 28 -53 3 -58 1 -63 -21z m105 -7 c0 -10 -58 -50 -72 -50 -5 0 -8
14 -8 30 0 28 2 30 40 30 22 0 40 -5 40 -10z"/>
<path d="M2260 836 c0 -10 12 -12 51 -8 65 6 64 -12 -4 -48 -46 -24 -65 -50
-52 -70 3 -5 40 -10 81 -10 69 0 74 1 60 16 -11 10 -16 34 -16 75 l0 59 -60 0
c-44 0 -60 -4 -60 -14z m98 -97 c-2 -20 -9 -24 -38 -24 -47 0 -51 26 -8 47 37
18 51 11 46 -23z"/>
<path d="M2571 836 c-7 -9 -11 -38 -9 -73 l3 -58 63 -3 c51 -2 62 0 62 13 0
18 -11 20 -27 4 -13 -13 -65 -8 -70 7 -2 7 21 26 52 44 56 32 65 46 43 68 -17
17 -103 15 -117 -2z m99 -16 c0 -10 -58 -50 -72 -50 -5 0 -8 14 -8 30 0 28 2
30 40 30 22 0 40 -5 40 -10z"/>
<path d="M877 723 c-12 -11 -8 -52 8 -89 10 -25 12 -41 5 -54 -7 -13 -5 -22 9
-34 24 -22 44 -20 59 4 10 17 8 26 -14 62 -15 23 -34 59 -44 80 -9 21 -20 35
-23 31z"/>
<path d="M1228 593 c-20 -5 -20 -5 -23 -83 -3 -67 6 -80 56 -80 45 0 52 14 47
100 -3 46 -6 55 -23 57 -11 2 -14 0 -7 -3 15 -7 17 -130 1 -139 -5 -4 -21 -4
-35 -1 -22 6 -24 11 -24 68 0 46 4 64 18 74 18 14 17 14 -10 7z"/>
<path d="M1533 573 c2 -25 -2 -28 -33 -33 -33 -5 -35 -7 -38 -49 -4 -56 9 -69
43 -47 22 15 26 15 31 1 3 -8 13 -15 22 -15 12 0 13 3 4 12 -7 7 -12 42 -12
85 0 40 -4 73 -9 73 -6 0 -9 -12 -8 -27z m5 -70 c3 -19 -29 -53 -50 -53 -10 0
-11 64 -1 74 14 14 48 1 51 -21z"/>
<path d="M2564 556 c-6 -14 -8 -28 -3 -33 4 -4 9 -26 11 -47 5 -63 23 -53 21
11 -1 32 -2 66 -3 76 0 24 -13 21 -26 -7z"/>
<path d="M1357 504 c3 -17 0 -41 -6 -53 -10 -18 -9 -21 10 -21 19 0 20 4 15
34 -7 36 10 60 38 54 8 -2 15 2 15 7 1 6 -17 10 -38 11 -38 0 -39 0 -34 -32z"/>
<path d="M1602 488 l3 -53 39 0 c23 0 41 5 44 13 3 9 -3 10 -23 2 -26 -10 -45
-6 -45 9 0 4 16 16 35 27 48 26 42 48 -13 52 l-43 3 3 -53z m68 33 c0 -5 -11
-16 -24 -25 -26 -17 -42 -7 -32 19 6 16 56 21 56 6z"/>
<path d="M1725 483 c0 -43 3 -53 17 -53 13 0 15 7 11 39 -5 33 -2 40 16 46 11
3 25 3 31 0 5 -3 10 0 10 9 0 10 -11 14 -42 14 l-43 -1 0 -54z"/>
<path d="M1938 528 c15 -15 16 -53 2 -79 -9 -17 -7 -19 17 -19 21 0 24 3 15
12 -7 7 -12 31 -12 55 0 34 -4 43 -17 43 -13 0 -14 -3 -5 -12z"/>
<path d="M2015 485 c0 -45 3 -55 17 -55 14 0 16 7 11 36 -6 37 5 54 38 54 12
0 15 -10 13 -45 -3 -40 -1 -45 19 -45 16 0 18 3 9 12 -7 7 -12 31 -12 55 0 35
-3 43 -18 43 -10 0 -24 -6 -31 -12 -11 -10 -14 -10 -18 0 -3 6 -10 12 -16 12
-8 0 -12 -20 -12 -55z"/>
<path d="M2312 488 l3 -53 39 0 c22 0 41 5 43 12 3 9 -4 10 -25 4 -51 -15 -59
4 -13 30 53 31 51 53 -7 57 l-43 3 3 -53z m68 32 c0 -13 -48 -36 -56 -27 -4 3
-4 13 -1 22 7 17 57 21 57 5z"/>
<path d="M2425 531 c-3 -6 9 -7 30 -4 46 7 45 -9 -1 -36 -51 -30 -43 -55 18
-59 l46 -3 -5 43 c-2 24 -6 49 -9 56 -4 14 -70 17 -79 3z m65 -61 c0 -20 -10
-25 -40 -20 -24 3 -25 9 -4 25 27 20 44 18 44 -5z"/>
<path d="M2737 493 c6 -57 16 -71 38 -53 14 11 20 11 37 1 11 -7 21 -11 23 -9
6 8 -11 102 -21 105 -6 2 -9 -10 -6 -30 3 -28 0 -35 -22 -45 -26 -12 -26 -11
-26 33 0 32 -4 45 -14 45 -10 0 -12 -11 -9 -47z"/>
<path d="M2878 528 c16 -16 16 -120 0 -136 -9 -9 -6 -12 17 -12 23 0 26 3 17
12 -22 22 -13 37 26 40 l37 3 3 53 c3 56 -7 64 -48 42 -13 -7 -21 -7 -25 0 -3
5 -14 10 -23 10 -12 0 -13 -3 -4 -12z m84 -38 c5 -34 -12 -51 -43 -43 -24 7
-25 48 -1 62 29 17 40 12 44 -19z"/>
<path d="M3164 526 c-3 -8 -4 -31 -2 -52 3 -38 4 -39 42 -39 25 0 41 5 44 14
3 10 0 12 -14 6 -55 -22 -70 2 -19 29 50 27 48 56 -5 56 -26 0 -43 -5 -46 -14z
m66 -10 c0 -13 -20 -26 -41 -26 -5 0 -9 9 -9 20 0 15 7 20 25 20 15 0 25 -6
25 -14z"/>
<path d="M3288 527 c10 -12 9 -51 -3 -84 -3 -8 4 -13 15 -13 17 0 19 5 13 32
-5 23 -2 34 12 45 36 26 48 17 43 -32 -5 -40 -3 -45 14 -45 14 0 18 5 14 16
-3 9 -6 31 -6 50 0 39 -21 54 -51 36 -11 -7 -20 -8 -24 -2 -3 6 -13 10 -22 10
-12 0 -13 -3 -5 -13z"/>
<path d="M3448 479 c4 -52 2 -65 -14 -76 -17 -12 -17 -13 4 -13 14 0 24 8 27
23 9 35 2 120 -11 124 -7 2 -9 -17 -6 -58z"/>
<path d="M3502 488 c3 -51 4 -53 34 -56 40 -4 56 16 52 65 -3 37 -4 38 -46 41
l-43 3 3 -53z m66 0 c3 -29 -1 -38 -17 -43 -30 -9 -41 2 -41 39 0 39 7 48 35
44 15 -2 21 -12 23 -40z"/>
<path d="M3624 524 c3 -9 6 -34 6 -56 0 -34 3 -39 18 -33 45 19 52 18 52 -8 0
-14 -6 -28 -12 -30 -7 -3 -3 -6 10 -6 21 -1 22 3 22 74 0 55 -3 75 -13 75 -9
0 -12 -11 -9 -33 3 -27 -1 -35 -21 -44 -32 -15 -37 -9 -37 39 0 21 -5 38 -11
38 -6 0 -8 -7 -5 -16z"/>
<path d="M2160 430 c-6 -12 -9 -24 -7 -27 3 -2 11 5 17 17 6 12 9 24 7 27 -3
2 -11 -5 -17 -17z"/>
<path d="M3017 444 c-4 -4 -7 -14 -7 -23 0 -11 3 -12 11 -4 6 6 10 16 7 23 -2
6 -7 8 -11 4z"/>
<path d="M3642 401 c4 -13 18 -16 19 -4 0 4 -5 9 -11 12 -7 2 -11 -2 -8 -8z"/>
</g>
</svg>
